<svg class="icon multi-color" width="48" height="48" id="suitcase-bag" xmlns="http://www.w3.org/2000/svg" viewBox="0 0 24 24"><title style="stroke-width: 2px;">suitcase bag</title><path id="tertiary-fill" d="M19.83,14.39l-.72,5.73a1,1,0,0,1-1,.88H5.88a1,1,0,0,1-1-.88l-.72-5.73" style="fill: rgb(202, 162, 237); stroke-width: 2px;"></path><path id="secondary-fill" d="M20.32,14.23l-4.53,1.51a12,12,0,0,1-7.58,0L3.68,14.23a1,1,0,0,1-.68-1V7H21v6.28A1,1,0,0,1,20.32,14.23Z" style="fill: rgb(250, 250, 250); stroke-width: 2px;"></path><path id="primary-stroke" d="M11,12h2M4.17,14.39l.72,5.73a1,1,0,0,0,1,.88H18.12a1,1,0,0,0,1-.88l.72-5.73m.49-.16-4.53,1.51a12,12,0,0,1-7.58,0L3.68,14.23a1,1,0,0,1-.68-1V7H21v6.28A1,1,0,0,1,20.32,14.23ZM17,7H7V6a3,3,0,0,1,3-3h4a3,3,0,0,1,3,3Z" style="fill: none; stroke: rgb(92, 184, 92) ; stroke-linecap: round; stroke-linejoin: round; stroke-width: 2px;"></path></svg>